<svg xmlns="http://www.w3.org/2000/svg" xmlns:xlink="http://www.w3.org/1999/xlink" viewBox="0 0 3710 3710"><defs><style>.cls-1{fill:url(#linear-gradient);}.cls-2{fill:url(#linear-gradient-2);}.cls-3{isolation:isolate;}.cls-32,.cls-4,.cls-41{fill:#fff;}.cls-5{fill:#f4f7fa;}.cls-6{fill:url(#linear-gradient-3);}.cls-7{fill:url(#linear-gradient-4);}.cls-8{fill:url(#linear-gradient-5);}.cls-9{fill:url(#linear-gradient-6);}.cls-10{fill:url(#linear-gradient-7);}.cls-11,.cls-43,.cls-44{mix-blend-mode:multiply;}.cls-11,.cls-44{opacity:0.3;}.cls-12{fill:url(#linear-gradient-8);}.cls-13{fill:url(#linear-gradient-9);}.cls-14{fill:url(#linear-gradient-10);}.cls-15{fill:url(#linear-gradient-11);}.cls-16{fill:url(#linear-gradient-12);}.cls-17{fill:url(#linear-gradient-13);}.cls-18{fill:url(#linear-gradient-14);}.cls-19{fill:url(#linear-gradient-15);}.cls-20{fill:url(#linear-gradient-16);}.cls-21{fill:url(#linear-gradient-17);}.cls-22{fill:url(#linear-gradient-18);}.cls-23{fill:url(#linear-gradient-19);}.cls-24{fill:url(#linear-gradient-20);}.cls-25{fill:url(#linear-gradient-21);}.cls-26{clip-path:url(#clip-path);}.cls-27,.cls-32,.cls-41{mix-blend-mode:soft-light;}.cls-27{opacity:0.5;}.cls-28{clip-path:url(#clip-path-2);}.cls-29{fill:#26264f;}.cls-30{fill:url(#linear-gradient-24);}.cls-31{fill:url(#linear-gradient-25);}.cls-32{opacity:0.48;}.cls-33{fill:url(#linear-gradient-26);}.cls-34{fill:url(#linear-gradient-27);}.cls-35{fill:url(#linear-gradient-28);}.cls-36{fill:#d8dee8;}.cls-37{fill:url(#linear-gradient-29);}.cls-38{fill:url(#linear-gradient-30);}.cls-39{fill:url(#linear-gradient-31);}.cls-40{fill:url(#linear-gradient-32);}.cls-42{fill:url(#linear-gradient-33);}.cls-43{fill:url(#linear-gradient-34);}.cls-44{fill:url(#linear-gradient-35);}</style><linearGradient id="linear-gradient" x1="668.52" y1="1424.01" x2="1498.08" y2="1424.01" gradientUnits="userSpaceOnUse"><stop offset="0" stop-color="#aa80f9"/><stop offset="1" stop-color="#6165d7"/></linearGradient><linearGradient id="linear-gradient-2" x1="1036.79" y1="1408.98" x2="833.85" y2="1953.74" gradientUnits="userSpaceOnUse"><stop offset="0" stop-color="#e38ddd"/><stop offset="1" stop-color="#9571f6"/></linearGradient><linearGradient id="linear-gradient-3" x1="4127.81" y1="1427.98" x2="4446.88" y2="1924.32" gradientTransform="translate(-2368.44 906.67) rotate(-11.19)" gradientUnits="userSpaceOnUse"><stop offset="0" stop-color="#fff"/><stop offset="1" stop-color="#f4f7fa"/></linearGradient><linearGradient id="linear-gradient-4" x1="5246" y1="135.31" x2="5514.46" y2="1484.68" gradientTransform="translate(-2738.75 806.54)" gradientUnits="userSpaceOnUse"><stop offset="0" stop-color="#ffc444"/><stop offset="1" stop-color="#f36f56"/></linearGradient><linearGradient id="linear-gradient-5" x1="5161.64" y1="37.83" x2="5430.1" y2="1387.2" gradientTransform="translate(-2973.66 706.8)" xlink:href="#linear-gradient-4"/><linearGradient id="linear-gradient-6" x1="5098.65" y1="47.72" x2="5367.11" y2="1397.09" gradientTransform="translate(-3208.57 607.05)" xlink:href="#linear-gradient-4"/><linearGradient id="linear-gradient-7" x1="5054.31" y1="151.37" x2="5322.77" y2="1500.74" gradientTransform="matrix(1, 0, 0, 1, -3443.48, 507.3)" xlink:href="#linear-gradient-4"/><linearGradient id="linear-gradient-8" x1="4728.2" y1="872.42" x2="4353.41" y2="1789.14" gradientTransform="translate(-432.43 -2092.85) rotate(34.82)" xlink:href="#linear-gradient-4"/><linearGradient id="linear-gradient-9" x1="4901.18" y1="1100" x2="4430.16" y2="1953.41" gradientTransform="translate(-2351.07 3497.46) rotate(-40.04)" xlink:href="#linear-gradient-3"/><linearGradient id="linear-gradient-10" x1="8112.52" y1="-2372.44" x2="8324.12" y2="-1236.52" gradientTransform="matrix(1, 0, 0, 1, -5305.22, 3910.47)" xlink:href="#linear-gradient-2"/><linearGradient id="linear-gradient-11" x1="8053.74" y1="-2361.49" x2="8265.34" y2="-1225.57" gradientTransform="matrix(1, 0, 0, 1, -5620.37, 3669.25)" xlink:href="#linear-gradient-2"/><linearGradient id="linear-gradient-12" x1="7994.97" y1="-2350.54" x2="8206.56" y2="-1214.63" gradientTransform="translate(-5935.53 3428.04)" xlink:href="#linear-gradient-2"/><linearGradient id="linear-gradient-13" x1="7897.42" y1="-2547.73" x2="8109.01" y2="-1411.82" gradientTransform="matrix(1, 0, 0, 1, -6250.68, 3186.83)" xlink:href="#linear-gradient-2"/><linearGradient id="linear-gradient-14" x1="5001.7" y1="1155.49" x2="4530.68" y2="2008.89" gradientTransform="translate(-432.43 -2092.85) rotate(34.82)" xlink:href="#linear-gradient-2"/><linearGradient id="linear-gradient-15" x1="4678.12" y1="1838.17" x2="4824.99" y2="2380.07" gradientTransform="matrix(0.36, -0.93, 0.93, 0.36, -1338.03, 5975.43)" xlink:href="#linear-gradient-3"/><linearGradient id="linear-gradient-16" x1="9441.16" y1="-5846.31" x2="9652.76" y2="-4710.34" gradientTransform="translate(-6563.88 8234.54)" gradientUnits="userSpaceOnUse"><stop offset="0" stop-color="#ff9085"/><stop offset="1" stop-color="#fb6fbb"/></linearGradient><linearGradient id="linear-gradient-17" x1="9369.41" y1="-5904.96" x2="9581.01" y2="-4768.98" gradientTransform="translate(-6881.07 7830.7)" xlink:href="#linear-gradient-16"/><linearGradient id="linear-gradient-18" x1="9303.05" y1="-5934.7" x2="9514.65" y2="-4798.72" gradientTransform="translate(-7198.26 7426.86)" xlink:href="#linear-gradient-16"/><linearGradient id="linear-gradient-19" x1="9231.42" y1="-5992.71" x2="9443.02" y2="-4856.74" gradientTransform="translate(-7515.45 7023.02)" xlink:href="#linear-gradient-16"/><linearGradient id="linear-gradient-20" x1="5293.55" y1="1418.58" x2="4857.99" y2="2107.38" gradientTransform="translate(-432.43 -2092.85) rotate(34.82)" xlink:href="#linear-gradient-16"/><linearGradient id="linear-gradient-21" x1="5203.56" y1="1751.5" x2="5333.47" y2="1751.5" gradientTransform="matrix(-0.02, 1, -1, -0.02, 3445.62, -3106.16)" xlink:href="#linear-gradient-2"/><clipPath id="clip-path"><path class="cls-1" d="M1498.08,2086.59c-64-60.1-148.56-157.71-186.8-295.73-50.15-181,23.34-272.48,15.06-578.94-5.24-193.77-10.85-329-108.54-401.25-76.56-56.66-200.49-67.92-275.71-15.41-62.54,43.67-98.72,136.55-109.76,202.84-9,54-1.77,93.26-32.91,121.72-31.83,29.09-66.19,12.62-96,34.17-60.35,43.69-25.41,188.41-19.76,211.8,62.83,260.18,302.57,435.66,408.07,510.94C1179,1939,1313.93,2021.92,1498.08,2086.59Z"/></clipPath><clipPath id="clip-path-2"><path class="cls-2" d="M1463,1947.93c-124.54,61-291.89,120.94-477.67,125.39-47.42,1.14-340.31,8.15-364.64-115.07-8.58-43.4,23.41-66.31,13-124.54-12.38-69-65.22-81-128.22-144.1C467.86,1652,357.86,1541.8,401.9,1430.27c26.31-66.65,106.45-130.77,182.75-147.78,111.92-25,193.66,56.33,329.58,196.24,120.5,124,125.29,166.41,213.61,254.21C1193.4,1798.1,1297.7,1881.05,1463,1947.93Z"/></clipPath><linearGradient id="linear-gradient-24" x1="446.14" y1="2220.9" x2="2315.36" y2="2220.9" gradientUnits="userSpaceOnUse"><stop offset="0" stop-color="#444b8c"/><stop offset="1" stop-color="#26264f"/></linearGradient><linearGradient id="linear-gradient-25" x1="522.91" y1="2208.62" x2="2252.15" y2="2208.62" xlink:href="#linear-gradient"/><linearGradient id="linear-gradient-26" x1="446.14" y1="2939.63" x2="3262.04" y2="2939.63" xlink:href="#linear-gradient-24"/><linearGradient id="linear-gradient-27" x1="1961.89" y1="1042.8" x2="910.24" y2="3217.65" gradientUnits="userSpaceOnUse"><stop offset="0" stop-color="#fff"/><stop offset="1" stop-color="#ebeff2"/></linearGradient><linearGradient id="linear-gradient-28" x1="1557.12" y1="777.84" x2="1106.41" y2="1990.46" gradientTransform="matrix(1, 0, 0, 1, 0, 0)" xlink:href="#linear-gradient-16"/><linearGradient id="linear-gradient-29" x1="1052.17" y1="1721.86" x2="1153.1" y2="1995.3" gradientTransform="matrix(1, 0, 0, 1, 0, 0)" xlink:href="#linear-gradient-16"/><linearGradient id="linear-gradient-30" x1="1025.2" y1="1731.38" x2="1125.8" y2="2003.94" gradientTransform="matrix(1, 0, 0, 1, 0, 0)" xlink:href="#linear-gradient-16"/><linearGradient id="linear-gradient-31" x1="1052.27" y1="1887.32" x2="1152.55" y2="2158.99" gradientTransform="matrix(1, 0, 0, 1, 0, 0)" xlink:href="#linear-gradient-16"/><linearGradient id="linear-gradient-32" x1="1025.48" y1="1897.32" x2="1125.43" y2="2168.1" gradientTransform="matrix(1, 0, 0, 1, 0, 0)" xlink:href="#linear-gradient-16"/><linearGradient id="linear-gradient-33" x1="3459.03" y1="4492.48" x2="3556.85" y2="4856.76" gradientTransform="matrix(1, -0.09, 0.09, 1, -1534.23, -1214.21)" xlink:href="#linear-gradient-4"/><linearGradient id="linear-gradient-34" x1="3936.04" y1="4723.76" x2="3949.8" y2="4723.76" gradientTransform="translate(-1117.42 -1595.97)" xlink:href="#linear-gradient"/><linearGradient id="linear-gradient-35" x1="3458.73" y1="4491.34" x2="3556.78" y2="4856.51" gradientTransform="matrix(1, -0.09, 0.09, 1, -1534.23, -1214.21)" gradientUnits="userSpaceOnUse"><stop offset="0" stop-color="#f36f56"/><stop offset="1" stop-color="#ffc444"/></linearGradient></defs><g class="cls-3"><g id="Background"><rect class="cls-4" width="3710" height="3710"/></g><g id="Illustration"><path class="cls-5" d="M3214.6,1422.1C2972.26,644.18,1983.11,322.85,1296.35,511c-74.27,20.35-692.93,200.24-882.87,761.73-9.49,28-187.12,578.18,117.66,904,225.46,241,536.13,168.24,659.12,411.81,107.16,212.23-78,367.85,20.35,509.07,149.87,215.12,797.51,166.8,1246.87-88.62C2921.47,2745.29,3430.45,2115,3214.6,1422.1Z"/><rect class="cls-6" x="1826.18" y="857.57" width="610.82" height="1658.11" transform="translate(1864.77 -1018.41) rotate(46.01)"/><rect class="cls-7" x="2338.42" y="1111.38" width="460.72" height="278.96" transform="matrix(0.69, 0.72, -0.72, 0.69, 1684.8, -1466.1)"/><rect class="cls-8" x="2103.51" y="1338.12" width="460.72" height="278.96" transform="matrix(0.69, 0.72, -0.72, 0.69, 1776.17, -1227.81)"/><rect class="cls-9" x="1868.6" y="1564.86" width="460.72" height="278.96" transform="matrix(0.69, 0.72, -0.72, 0.69, 1867.55, -989.51)"/><rect class="cls-10" x="1633.68" y="1791.6" width="460.72" height="278.96" transform="translate(1958.92 -751.22) rotate(46.01)"/><g class="cls-11"><path class="cls-12" d="M2940.21,1330.6,2714.71,1097c-14.45,65-41.62,132.84-91,192.63-93.92,113.78-201.7,117.79-364.66,218.26C2089,1612.73,2041.57,1710,1911,1848.68c-95.31,101.19-235.74,225.31-443.72,343.42l280,290Z"/></g><rect class="cls-13" x="1954.83" y="1126.64" width="610.82" height="1658.11" transform="translate(3557.7 -736.9) rotate(74.86)"/><rect class="cls-14" x="2623.06" y="1645.44" width="460.72" height="278.96" transform="translate(3831.1 -1435.65) rotate(74.86)"/><rect class="cls-15" x="2307.9" y="1730.72" width="460.72" height="278.96" transform="translate(3680.57 -1068.43) rotate(74.86)"/><rect class="cls-16" x="1992.75" y="1815.99" width="460.72" height="278.96" transform="translate(3530.05 -701.22) rotate(74.86)"/><rect class="cls-17" x="1677.59" y="1901.27" width="460.72" height="278.96" transform="translate(3379.52 -334) rotate(74.86)"/><g class="cls-11"><path class="cls-18" d="M3140.29,2034l-105.07-388.33c-66.61,85.54-133.58,124.08-187.2,143.13-150.66,53.53-240.67-30.74-438.41,5-185.43,33.53-262.54,135.89-387.71,211.48-119.1,71.92-299.29,130.22-580.57,98.06l98.41,363.71Z"/></g><rect class="cls-19" x="1977.95" y="1467.88" width="610.82" height="1658.11" transform="translate(5055.87 622.78) rotate(103.7)"/><rect class="cls-20" x="2654.96" y="2294.05" width="460.72" height="278.96" transform="translate(5933.16 206.9) rotate(103.7)"/><rect class="cls-21" x="2337.77" y="2216.7" width="460.72" height="278.96" transform="translate(5465.66 419.39) rotate(103.7)"/><rect class="cls-22" x="2020.58" y="2139.34" width="460.72" height="278.96" transform="translate(4998.17 631.87) rotate(103.7)"/><rect class="cls-23" x="1703.38" y="2061.99" width="460.72" height="278.96" transform="translate(4530.68 844.36) rotate(103.7)"/><g class="cls-11"><path class="cls-24" d="M3016.45,2790.07l92.88-380.85c-129.82,74.52-227.73,79.94-295.36,69.68-158.07-24-197.6-140.79-388.78-202.68-179.27-58-295.59-4.24-441.62,3.25-129.48,6.64-300.13-22.23-511.1-156.65l-66.92,274.41Z"/></g><circle class="cls-25" cx="1601.25" cy="2130.6" r="64.96" transform="translate(-1037.57 1756.29) rotate(-45)"/><path class="cls-1" d="M1498.08,2086.59c-64-60.1-148.56-157.71-186.8-295.73-50.15-181,23.34-272.48,15.06-578.94-5.24-193.77-10.85-329-108.54-401.25-76.56-56.66-200.49-67.92-275.71-15.41-62.54,43.67-98.72,136.55-109.76,202.84-9,54-1.77,93.26-32.91,121.72-31.83,29.09-66.19,12.62-96,34.17-60.35,43.69-25.41,188.41-19.76,211.8,62.83,260.18,302.57,435.66,408.07,510.94C1179,1939,1313.93,2021.92,1498.08,2086.59Z"/><g class="cls-26"><g class="cls-27"><path class="cls-4" d="M1571,2135.52c-111.75-42.46-207.94-93.13-285.9-150.58-115.5-85.11-187.44-182.92-213.83-290.7-20.63-84.26-13-175.47-3.31-291,8-95.74,22.33-162.78,34.95-221.93,16.32-76.53,29.22-137,20.27-224.32-9.08-88.76-38.36-177-87-262.35l6.22-3.54c49.16,86.2,78.74,175.41,87.93,265.16,9.06,88.46-3.94,149.4-20.4,226.54-12.57,58.94-26.82,125.75-34.81,221-10,119.34-17.22,205.54,3.13,288.67,26,106.11,97,202.55,211.12,286.64,77.44,57.07,173.06,107.42,284.2,149.65Z"/><path class="cls-4" d="M1076.81,1337.77l-1.16-3.87c-51.43-172.66-143.74-280.71-212.13-341C789.39,927.63,726.6,902.84,726,902.6l2.59-6.67c.63.25,64.38,25.37,139.43,91.41,68.65,60.42,161.13,168.41,213.32,340.53,14.3-6.94,68.16-35.22,122-90.75,57.64-59.4,127.13-163.07,130.83-319.67l7.16.17c-3.77,159.06-74.44,264.37-133.07,324.7-63.53,65.38-127.13,93.56-127.77,93.83Z"/><path class="cls-4" d="M1063.44,1595.74,1061,1595c-84.43-24.78-180.16-121.82-284.55-288.41-77.53-123.73-131.11-241.77-131.64-242.95l6.51-2.94c2.11,4.67,212.33,465.58,409.23,526.69,10-14.35,69.11-97.42,143.43-170.34,42.86-42,115.14-69.25,168.23-84.67a859.87,859.87,0,0,1,105.77-23.59l1,7.09c-1.89.26-189.84,27.64-270,106.28-80.76,79.23-143.41,170.51-144,171.42Z"/><path class="cls-4" d="M1256.42,1961.9l-7.08-.84c-.94-.11-95.7-11.72-219.43-54.86-114.22-39.83-277.3-115.46-405.51-249.61l-247.26-258.7,5.17-4.94,247.26,258.7c127.18,133.07,289.09,208.17,402.52,247.74,103.77,36.19,187,50.07,211.05,53.6-47.15-87-38.33-181.65,25.7-274.17,49.28-71.21,114.59-116.71,115.25-117.16l4.06,5.89c-.64.44-65,45.32-113.54,115.5-64.7,93.59-72,185.33-21.75,272.67Z"/></g></g><path class="cls-2" d="M1463,1947.93c-124.54,61-291.89,120.94-477.67,125.39-47.42,1.14-340.31,8.15-364.64-115.07-8.58-43.4,23.41-66.31,13-124.54-12.38-69-65.22-81-128.22-144.1C467.86,1652,357.86,1541.8,401.9,1430.27c26.31-66.65,106.45-130.77,182.75-147.78,111.92-25,193.66,56.33,329.58,196.24,120.5,124,125.29,166.41,213.61,254.21C1193.4,1798.1,1297.7,1881.05,1463,1947.93Z"/><g class="cls-28"><g class="cls-27"><path class="cls-4" d="M1460.06,1947c-137,0-276.57-36.17-416.75-108.23-203.89-104.8-358-259.29-451.41-370.44-65.16-77.54-107.91-177.42-127.08-296.85l7.06-1.13c19,118.14,61.19,216.84,125.49,293.38,93,110.64,246.38,264.42,449.21,368.68,194.7,100.07,388.12,130.43,574.89,90.24,140.21-30.17,271.72-97.29,390.89-199.5l4.66,5.43c-120.08,103-252.66,170.64-394,201.06A772.47,772.47,0,0,1,1460.06,1947Z"/><path class="cls-4" d="M803.23,1675.7l-3.19-.4C446.23,1630.71,352.31,1428.57,332,1367.68c-.38-1.13-.62-1.88-.76-2.22l6.45-3.1c.17.36.54,1.39,1.1,3.05,20,59.7,112,257.49,458.94,302.38,5.87-28.72,44.89-246.85-86.91-401.26l5.44-4.64c143,167.55,88.33,408.27,87.76,410.68Z"/><path class="cls-4" d="M716.32,1950.22c-10.18,0-19.75-.37-28.73-1-85.1-6.09-133.34-36.26-135.35-37.54l3.84-6c.48.3,49,30.6,132.49,36.47,76.79,5.39,199.64-9.39,349.37-110.17-.57-20.15-8.66-196.81-117.54-385.35L803.42,1244l6.2-3.58L926.6,1443c116.1,201,118.52,388.9,118.53,390.77l0,1.91-1.59,1.07C908.64,1928,794.94,1950.22,716.32,1950.22Z"/></g></g><path class="cls-29" d="M3262,2919.15l-2815.9-24v71c0,19.28,12.28,35.67,28.92,38.59l796.25,139.85a111.68,111.68,0,0,0,28.57,1.31l1931.56-159.45c17.25-1.42,30.6-17.86,30.6-37.67Z"/><path class="cls-29" d="M2240.16,2805.33,475.26,2935.26c-31.58,2.32-57.26-22.38-57.26-55.19V1565.8c0-32.8,25.68-59.4,57.26-59.4h1764.9c26,0,47.06,24,47.06,53.7V2748.18C2287.22,2777.83,2266.18,2803.42,2240.16,2805.33Z"/><path class="cls-30" d="M2268.31,2805.33,503.4,2935.26c-31.58,2.32-57.26-22.38-57.26-55.19V1565.8c0-32.8,25.68-59.4,57.26-59.4H2268.31c26,0,47.05,24,47.05,53.7V2748.18C2315.36,2777.83,2294.32,2803.42,2268.31,2805.33Z"/><path class="cls-31" d="M2213.32,2721.57,569.5,2834.43c-25.7,1.76-46.59-18.51-46.59-45.29V1638.49c0-26.78,20.89-48.58,46.59-48.69l1643.82-7.09c21.47-.09,38.83,19.6,38.83,44v1048C2252.15,2699.13,2234.79,2720.1,2213.32,2721.57Z"/><path class="cls-4" d="M1448.18,1542.35c0,12.21-9.08,22.14-20.3,22.18s-20.34-9.86-20.34-22.1,9.11-22.17,20.34-22.18S1448.18,1530.14,1448.18,1542.35Z"/><path class="cls-32" d="M503.39,2935.26l1756-129.27,8.94-.66c11.93-.87,22.79-6.78,31.08-15.73-126.36-6.91-204.85-51.76-255.48-98.09-101.67-93.05-84-184.81-193.68-246-136.75-76.31-244.28,20.38-348.06-75-62.91-57.84-32-101-109.44-187.4-85.74-95.74-141.56-63.56-227.74-149.72-109-108.94-54.46-193.7-148.31-271.92-113.86-94.89-236.65-7.06-345-98.06-46.74-39.25-72.39-96.31-85.79-157H503.4c-31.58,0-57.26,26.6-57.26,59.4V2880.07C446.14,2912.88,471.81,2937.58,503.39,2935.26Z"/><path class="cls-33" d="M2338.65,2798.13,446.14,2934.88l825.17,144.93a111.68,111.68,0,0,0,28.57,1.31l1962.16-162-893.29-120.09A145.68,145.68,0,0,0,2338.65,2798.13Z"/><polygon class="cls-29" points="722.29 2936.06 2297.86 2820.51 2785.48 2885.54 1223.48 3009.05 722.29 2936.06"/><path class="cls-34" d="M2487.43,2452.13c0,145.41-118.61,270.81-267,280.23L567.77,2837.29h0c174.76-11.09,314.3-147.77,314.3-305.45V718l1605.36,61.41Z"/><path class="cls-35" d="M1726,1187.87c0,164.26-139.46,297.26-314.23,297.07-177.86-.2-324.37-137.82-324.37-307.38s146.51-302.44,324.37-296.9C1586.55,886.11,1726,1023.62,1726,1187.87Z"/><polygon class="cls-36" points="2383.57 1180.45 1806.27 1170.58 1806.27 1070.22 2383.57 1083.03 2383.57 1180.45"/><polygon class="cls-36" points="2383.57 1260.88 1806.27 1253.44 1806.27 1203.26 2383.57 1212.17 2383.57 1260.88"/><polygon class="cls-36" points="2383.57 1341.31 1806.27 1336.3 1806.27 1286.12 2383.57 1292.6 2383.57 1341.31"/><polygon class="cls-36" points="2383.57 1772.51 1141.57 1789.72 1141.57 1739.88 2383.57 1725.71 2383.57 1772.51"/><polygon class="cls-37" points="1040.25 1791.13 1096.5 1790.35 1096.5 1740.4 1040.25 1741.04 1040.25 1791.13"/><polygon class="cls-36" points="2383.57 1849.79 1141.57 1872.02 1141.57 1822.18 2383.57 1802.98 2383.57 1849.79"/><polygon class="cls-38" points="1040.25 1873.83 1096.5 1872.82 1096.5 1822.87 1040.25 1823.74 1040.25 1873.83"/><polygon class="cls-36" points="2383.57 1927.06 1141.57 1954.31 1141.57 1904.47 2383.57 1880.26 2383.57 1927.06"/><polygon class="cls-39" points="1040.25 1956.53 1096.5 1955.3 1096.5 1905.35 1040.25 1906.44 1040.25 1956.53"/><polygon class="cls-36" points="2383.57 2004.34 1141.57 2036.6 1141.57 1986.76 2383.57 1957.54 2383.57 2004.34"/><polygon class="cls-40" points="1040.25 2039.23 1096.5 2037.77 1096.5 1987.82 1040.25 1989.14 1040.25 2039.23"/><polygon class="cls-36" points="2383.57 2158.89 1040.25 2204.63 1040.25 2154.55 2383.57 2112.09 2383.57 2158.89"/><polygon class="cls-36" points="2383.57 2236.16 1040.25 2287.33 1040.25 2237.25 2383.57 2189.36 2383.57 2236.16"/><polygon class="cls-36" points="2383.57 2313.44 1040.25 2370.03 1040.25 2319.95 2383.57 2266.64 2383.57 2313.44"/><polygon class="cls-36" points="2383.57 2390.71 1040.25 2452.74 1040.25 2402.65 2383.57 2343.91 2383.57 2390.71"/><path class="cls-4" d="M1510.4,1359.09l-28.62-93.53-145.22-.7-29.13,94.23H1215L1357.4,962l103.26,2.1,139.38,395Zm-48.65-163.58q-39.88-127.77-45-144.65t-7.22-26.55q-9,34.38-51.63,170.33Z"/><path class="cls-36" d="M3123.77,3169.79l-430.19,39.67a22.18,22.18,0,0,1-24.11-20h0a22.17,22.17,0,0,1,20-24.11l430.19-39.67a22.17,22.17,0,0,1,24.11,20h0A22.18,22.18,0,0,1,3123.77,3169.79Z"/><path class="cls-36" d="M3142.92,3064.69h96a1.38,1.38,0,0,1,1.38,1.38v51.45a1.38,1.38,0,0,1-1.38,1.38h-96a0,0,0,0,1,0,0v-54.21A0,0,0,0,1,3142.92,3064.69Z" transform="translate(-270.44 306.15) rotate(-5.27)"/><path class="cls-29" d="M1498.08,3259.63l-40.11,3.7a8.21,8.21,0,0,1-8.92-7.42h0a8.2,8.2,0,0,1,7.41-8.93l40.12-3.7Z"/><path class="cls-36" d="M1474.17,3253.59h0a17.52,17.52,0,0,0,15.49,15.8l170.44,19.05-9.51-103.12-164.08,49.91A17.5,17.5,0,0,0,1474.17,3253.59Z"/><path class="cls-41" d="M1484.48,3245.42h0c.21,2.26,6.2,3.68,14.35,3.39l166.83-20.1-2.6-28.25-165.1,39C1489.9,3240.66,1484.27,3243.15,1484.48,3245.42Z"/><path class="cls-42" d="M3153.17,3148.83l-1497.11,140c-28.47,2.63-38-100.49-9.51-103.11l1497.11-140a30.87,30.87,0,0,1,33.59,27.92l3.84,41.6A30.87,30.87,0,0,1,3153.17,3148.83Z"/><polygon class="cls-41" points="2821.62 3119.17 1644.75 3229.62 1642.51 3205.32 2819.38 3094.87 2821.62 3119.17"/><rect class="cls-43" x="2818.5" y="3075.29" width="13.76" height="103.97" transform="translate(-275.07 272.48) rotate(-5.27)"/><rect class="cls-41" x="3132.56" y="3046.33" width="13.76" height="103.97" transform="translate(-271.15 301.27) rotate(-5.27)"/><path class="cls-44" d="M3143.66,3045.72l-717.43,68.07c-81.77,75.24-138.83,87.31-178.36,80.28-27.45-4.89-62.89-21.89-117.33-13.77-52.58,7.85-55.47,29.07-98.3,30.45-63.5,2-85.29-43.71-132.7-29.57-25.5,7.61-21.43,21.5-56.7,42.87-13.08,7.93-67.56,40.92-130,25.65-36.34-8.89-62.16-30.87-79.23-51.16-10.71,28.11-.07,92.35,22.48,90.27l1497.11-140a30.87,30.87,0,0,0,27.92-33.59l-3.84-41.6A30.87,30.87,0,0,0,3143.66,3045.72Z"/></g></g></svg>